<svg xmlns="http://www.w3.org/2000/svg" viewBox="0 0 100 100" width="100%" height="100%">
  <!-- Database Stack Icon -->
  <ellipse cx="50" cy="22" rx="36" ry="14" fill="#00758f"/>
  <path d="M14 22 v24 c0 7.7 16.1 14 36 14 s36-6.3 36-14 V22" fill="none" stroke="#00758f" stroke-width="8"/>
  <path d="M14 22 v24 c0 7.7 16.1 14 36 14 s36-6.3 36-14 V22" fill="#008fae" opacity="0.4"/>
  <path d="M14 46 v24 c0 7.7 16.1 14 36 14 s36-6.3 36-14 V46" fill="none" stroke="#00758f" stroke-width="8"/>
  <path d="M14 46 v24 c0 7.7 16.1 14 36 14 s36-6.3 36-14 V46" fill="#008fae" opacity="0.4"/>
  <ellipse cx="50" cy="22" rx="26" ry="9" fill="#33abc6"/>
  <text x="50" y="88" font-family="sans-serif" font-weight="900" font-size="18" fill="#00758f" text-anchor="middle">SQL</text>
</svg>
